<mxfile host="app.diagrams.net" modified="2023-11-18T13:11:08.606Z" agent="Mozilla/5.0 (Macintosh; Intel Mac OS X 10_15_7) AppleWebKit/537.36 (KHTML, like Gecko) Chrome/118.0.0.0 Safari/537.36" version="22.1.3" etag="imvQz0uulaRxx8GYP3dd" type="github">
  <diagram name="Page-1" id="IoRtjBnnqrrsDaRusSs-">
    <mxGraphModel>
      <root>
        <mxCell id="0" />
        <mxCell id="1" parent="0" />
      </root>
    </mxGraphModel>
  </diagram>
</mxfile>
